<svg xmlns="http://www.w3.org/2000/svg" xmlns:xlink="http://www.w3.org/1999/xlink" viewBox="0 0 32 32"><path d="M 8 32 C 3.582 32 0 32 0 32 L 0 0 C 0 0 3.582 0 8 0 L 24 0 C 28.418 0 32 0 32 0 L 32 32 C 32 32 28.418 32 24 32 Z" fill="rgb(112,90,248)"/><g transform="translate(8 8)" id="ss9605340551_2"><path d="M 0 16 L 0 0 L 16 0 L 16 16 Z" fill="transparent"/><path d="M 3.333 10.333 L 3.333 0 L 0 2.667 L 0 12.693 L 8.333 16 L 11.333 13.333 Z" fill="rgb(255,255,255)"/><path d="M 12.667 5.667 L 12.667 16 L 16 13.333 L 16 3.307 L 7.667 0 L 4.667 2.667 Z" fill="rgb(255,255,255)"/></g></svg>